HIERARCHY
ROOT Pelvis
{
	OFFSET 0.000000 0.000000 0.000000
	CHANNELS 6 Xposition Yposition Zposition Xrotation Yrotation Zrotation
	JOINT LeftUpLeg_virtual
	{
		OFFSET 0.000000 0.000000 0.000000
		CHANNELS 3 Xrotation Yrotation Zrotation
		JOINT LeftUpLeg
		{
			OFFSET 8.479700 -4.795502 -0.379100
			CHANNELS 3 Xrotation Yrotation Zrotation
			JOINT LeftLeg
			{
				OFFSET 0.024144 -32.555107 0.112900
				CHANNELS 3 Xrotation Yrotation Zrotation
				JOINT LeftFoot
				{
					OFFSET -0.024144 -32.638630 -3.012600
					CHANNELS 3 Xrotation Yrotation Zrotation
					JOINT LeftToeBase
					{
						OFFSET 0.970200 -13.225400 11.864200
						CHANNELS 3 Xrotation Yrotation Zrotation
						End Site
						{
							OFFSET 0 0 0
						}
					}
				}
			}
		}
	}
	JOINT RightUpLeg_virtual
	{
		OFFSET 0.000000 0.000000 0.000000
		CHANNELS 3 Xrotation Yrotation Zrotation
		JOINT RightUpLeg
		{
			OFFSET -8.479700 -4.795502 -0.379100
			CHANNELS 3 Xrotation Yrotation Zrotation
			JOINT RightLeg
			{
				OFFSET -0.023144 -32.555092 0.112900
				CHANNELS 3 Xrotation Yrotation Zrotation
				JOINT RightFoot
				{
					OFFSET 0.023144 -32.638641 -3.012700
					CHANNELS 3 Xrotation Yrotation Zrotation
					JOINT RightToeBase
					{
						OFFSET -0.970200 -13.225400 11.864200
						CHANNELS 3 Xrotation Yrotation Zrotation
						End Site
						{
							OFFSET 0 0 0
						}
					}
				}
			}
		}
	}
	JOINT Hips_virtual
	{
		OFFSET 0.000000 0.000000 0.000000
		CHANNELS 3 Xrotation Yrotation Zrotation
		JOINT Hips
		{
			OFFSET -0.000000 -0.000000 -0.000000
			CHANNELS 3 Xrotation Yrotation Zrotation
			JOINT Spine
			{
				OFFSET 0.000000 7.722000 1.166200
				CHANNELS 3 Xrotation Yrotation Zrotation
				JOINT Spine1
				{
					OFFSET 0.000000 12.024101 0.248800
					CHANNELS 3 Xrotation Yrotation Zrotation
					JOINT Spine2
					{
						OFFSET 0.000000 11.502998 -0.491200
						CHANNELS 3 Xrotation Yrotation Zrotation
						JOINT Neck_virtual
						{
							OFFSET 0.000000 0.000000 0.000000
							CHANNELS 3 Xrotation Yrotation Zrotation
							JOINT Neck
							{
								OFFSET 0.000000 18.430702 -3.123100
								CHANNELS 3 Xrotation Yrotation Zrotation
								JOINT Head
								{
									OFFSET 0.000000 9.051102 1.034000
									CHANNELS 3 Xrotation Yrotation Zrotation
									End Site
									{
										OFFSET 0 0 0
									}
								}
							}
						}
						JOINT LeftShoulder_virtual
						{
							OFFSET 0.000000 0.000000 0.000000
							CHANNELS 3 Xrotation Yrotation Zrotation
							JOINT LeftShoulder
							{
								OFFSET 6.197800 13.665199 -4.064700
								CHANNELS 3 Xrotation Yrotation Zrotation
								JOINT LeftArm
								{
									OFFSET 7.778100 -0.187103 -1.709300
									CHANNELS 3 Xrotation Yrotation Zrotation
									JOINT LeftForeArm
									{
										OFFSET 22.049376 0.000000 0.000000
										CHANNELS 3 Xrotation Yrotation Zrotation
										JOINT LeftHand
										{
											OFFSET 23.009392 0.000000 0.000000
											CHANNELS 3 Xrotation Yrotation Zrotation
											End Site
											{
												OFFSET 0 0 0
											}
										}
									}
								}
							}
						}
						JOINT RightShoulder_virtual
						{
							OFFSET 0.000000 0.000000 0.000000
							CHANNELS 3 Xrotation Yrotation Zrotation
							JOINT RightShoulder
							{
								OFFSET -6.197800 13.665199 -4.064700
								CHANNELS 3 Xrotation Yrotation Zrotation
								JOINT RightArm
								{
									OFFSET -7.778100 -0.187103 -1.709300
									CHANNELS 3 Xrotation Yrotation Zrotation
									JOINT RightForeArm
									{
										OFFSET -22.049376 0.000000 0.000000
										CHANNELS 3 Xrotation Yrotation Zrotation
										JOINT RightHand
										{
											OFFSET -23.009392 0.000000 0.000000
											CHANNELS 3 Xrotation Yrotation Zrotation
											End Site
											{
												OFFSET 0 0 0
											}
										}
									}
								}
							}
						}
					}
				}
			}
		}
	}
}
MOTION
Frames: 11
Frame Time: 0.03333333
0.569812 71.677444 27.740227 0.000000 0.000000 0.000000 11.280816 -1.141103 -6.122303 -61.113350 -3.693408 8.715233 127.232040 4.812565 0.357809 9.529605 0.532212 -1.928517 0.000000 0.000000 0.000000 11.280816 -1.141103 -6.122303 -37.061119 -11.601168 7.144635 59.208540 0.405359 1.321678 -32.962199 2.831262 -7.662697 0.000000 0.000000 0.000000 11.280816 -1.141103 -6.122303 0.000000 0.000000 0.000000 9.975134 1.753973 8.233396 2.029112 -0.047010 0.508498 0.000000 0.000000 0.000000 4.987199 -0.052526 0.186540 -3.841286 -0.341669 -0.277916 0.000000 0.000000 0.000000 4.987199 -0.052526 0.186540 0.557759 -4.314609 -11.777487 13.923811 -4.816972 -56.121400 0.008790 -89.980215 0.008795 0.000000 0.000000 0.000000 4.987199 -0.052526 0.186540 0.567973 4.488693 11.813870 -16.187038 25.518755 44.451178 179.999636 89.728038 179.999868 0.000000 0.000000 0.000000 
0.720606 71.701988 31.574354 0.000000 0.000000 0.000000 12.160149 -1.541181 -4.929272 -75.516662 -3.223410 8.610185 125.259085 4.750545 -0.728964 3.221517 0.379084 0.110295 0.000000 0.000000 0.000000 12.160149 -1.541181 -4.929272 -34.394913 -10.512281 7.216377 59.002637 -0.792559 0.200796 -35.078397 2.847478 -7.317562 0.000000 0.000000 0.000000 12.160149 -1.541181 -4.929272 0.000000 0.000000 0.000000 10.830080 2.673136 6.625697 2.512571 0.388421 -0.101538 0.000000 0.000000 0.000000 5.375356 0.319863 -0.444561 -4.070067 -0.572483 0.096463 0.000000 0.000000 0.000000 5.375356 0.319863 -0.444561 0.550769 -4.131759 -11.649549 15.857054 -4.083513 -55.500522 0.000325 -84.180818 0.000312 0.000000 0.000000 0.000000 5.375356 0.319863 -0.444561 0.473737 5.340370 11.212076 -18.532571 23.013663 45.080727 179.996959 87.952728 -179.996890 0.000000 0.000000 0.000000 
0.817147 72.040077 35.167847 0.000000 0.000000 0.000000 12.540592 -1.577404 -3.825847 -85.115229 -2.521391 8.977103 119.172376 1.929065 -2.263935 -3.834768 0.152453 0.308548 0.000000 0.000000 0.000000 12.540592 -1.577404 -3.825847 -30.864631 -9.330743 7.337035 57.552519 -0.573053 -0.825137 -36.327085 0.932542 -7.436460 0.000000 0.000000 0.000000 12.540592 -1.577404 -3.825847 -0.000001 0.000000 0.000000 11.616722 3.260700 5.004189 2.983595 0.736435 -0.674759 0.000000 0.000000 0.000000 5.744168 0.609385 -1.028370 -3.883336 -0.735808 0.343319 0.000000 0.000000 0.000000 5.744168 0.609385 -1.028370 0.538971 -4.141283 -11.327450 18.370849 -3.661177 -55.120873 -0.000009 -80.178833 -0.000038 0.000000 0.000000 0.000000 5.744168 0.609385 -1.028370 0.447438 5.899440 10.987406 -20.430612 18.612569 45.715214 -179.999609 84.929393 179.999650 0.000000 0.000000 0.000000 
0.877787 72.480446 38.703209 0.000000 0.000000 0.000000 12.256987 -1.413749 -3.407276 -88.817075 -2.261117 9.515811 109.847269 -2.557578 -3.933211 -11.727662 0.379211 -2.152967 0.000000 0.000000 0.000000 12.256987 -1.413749 -3.407276 -26.629876 -8.512782 7.849527 55.549300 0.017488 -1.743273 -35.928161 -1.649520 -7.220150 0.000000 0.000000 0.000000 12.256987 -1.413749 -3.407276 -0.000001 0.000000 0.000000 12.166983 3.794036 3.990487 3.317687 1.004296 -1.066091 0.000000 0.000000 0.000000 5.969676 0.834223 -1.426133 -3.184215 -0.852758 0.456091 0.000000 0.000000 0.000000 5.969676 0.834223 -1.426133 0.522139 -4.229543 -10.713357 21.185309 -3.140020 -55.477583 -0.000014 -77.628283 0.000006 0.000000 0.000000 0.000000 5.969676 0.834223 -1.426133 0.476050 6.147940 11.241229 -21.265152 13.374088 46.275426 -179.999431 82.010061 179.999472 0.000000 0.000000 0.000000 
0.929388 72.764320 42.616287 0.000000 0.000000 0.000000 11.195985 -1.380301 -4.097056 -87.571085 -2.422553 9.871940 99.257989 -7.367127 -4.849692 -19.632861 2.438786 -5.847998 0.000000 0.000000 0.000000 11.195985 -1.380301 -4.097056 -21.705988 -8.244582 8.890184 53.943239 1.170730 -2.354375 -33.679861 -4.227838 -6.223646 0.000000 0.000000 0.000000 11.195985 -1.380301 -4.097056 0.000000 0.000000 0.000000 12.227792 4.647639 4.038242 3.337154 1.195936 -1.180667 0.000000 0.000000 0.000000 5.874701 1.001687 -1.551850 -1.902032 -0.938614 0.463575 0.000000 0.000000 0.000000 5.874701 1.001687 -1.551850 0.502968 -4.272992 -9.818083 24.079256 -2.115466 -56.822058 -0.000040 -75.922962 -0.000038 0.000000 0.000000 0.000000 5.874701 1.001687 -1.551850 0.544186 6.092845 11.960004 -19.126910 9.551827 46.232799 -179.999991 80.056593 -179.999991 0.000000 0.000000 0.000000 
0.996344 72.816978 47.087734 0.000000 0.000000 0.000000 9.265690 -1.152785 -5.691433 -82.797698 -2.845174 10.224829 89.465895 -9.839583 -4.909097 -26.399504 3.949421 -9.394796 0.000000 0.000000 0.000000 9.265690 -1.152785 -5.691433 -16.345667 -8.447906 10.023271 53.306850 2.927859 -2.529374 -28.756811 -6.432554 -4.004513 0.000000 0.000000 0.000000 9.265690 -1.152785 -5.691433 0.000001 0.000000 0.000000 11.851915 5.402968 4.940549 3.046577 1.298631 -1.033836 0.000000 0.000000 0.000000 5.465191 1.100709 -1.418278 -0.229917 -0.996103 0.429830 0.000000 0.000000 0.000000 5.465191 1.100709 -1.418278 0.484231 -4.216895 -8.753548 26.718390 -0.445348 -58.949887 -0.000007 -74.504291 -0.000035 0.000000 0.000000 0.000000 5.465191 1.100709 -1.418278 0.637465 5.782874 13.068250 -15.441605 5.929117 46.019598 -179.999991 79.595630 179.999991 0.000000 0.000000 0.000000 
1.095550 72.720871 51.755615 0.000000 0.000000 0.000000 6.698708 -0.326446 -7.510573 -75.871756 -2.989506 10.490394 81.207582 -9.783055 -4.340700 -30.978333 4.170114 -12.264043 0.000000 0.000000 0.000000 6.698708 -0.326446 -7.510573 -10.966198 -9.121953 11.234871 53.381695 4.431838 -2.308481 -21.362882 -6.977563 -3.400976 0.000000 0.000000 0.000000 6.698708 -0.326446 -7.510573 0.000000 0.000000 0.000001 11.287498 5.472629 5.988512 2.674679 1.294172 -0.721923 0.000000 0.000000 0.000000 4.970136 1.117499 -1.106079 1.355432 -1.020927 0.389700 0.000000 0.000000 0.000000 4.970136 1.117499 -1.106079 0.469317 -4.101328 -7.702678 28.541617 1.692283 -61.339757 -0.000025 -73.136020 -0.000040 0.000000 0.000000 0.000000 4.970136 1.117499 -1.106079 0.739575 5.326418 14.454188 -11.326736 2.674844 45.762534 179.999882 80.896399 -179.999909 0.000000 0.000000 0.000000 
1.224817 72.548615 56.209251 0.000000 0.000000 0.000000 3.882348 0.918122 -8.963135 -67.869609 -2.579907 10.550913 74.290465 -9.695699 -3.523187 -33.056644 4.847039 -12.853093 0.000000 0.000000 0.000000 3.882348 0.918122 -8.963135 -6.930224 -10.004967 11.887375 54.187722 6.625704 -1.752376 -9.464850 -6.494053 -3.367711 0.000000 0.000000 0.000000 3.882348 0.918122 -8.963135 0.000000 0.000000 0.000001 10.682254 4.863431 6.578140 2.381767 1.187801 -0.371396 0.000000 0.000000 0.000000 4.548962 1.051279 -0.732685 2.452790 -1.005223 0.338285 0.000000 0.000000 0.000000 4.548962 1.051279 -0.732685 0.464095 -4.022993 -6.894651 29.150107 3.980697 -63.478856 0.000023 -71.679973 0.000029 0.000000 0.000000 0.000000 4.548962 1.051279 -0.732685 0.828048 4.890931 15.978121 -7.532224 0.235924 45.471626 -179.999568 84.155977 179.999527 0.000000 0.000000 0.000000 
1.362875 72.303177 60.338825 0.000000 0.000000 0.000000 1.127698 2.230549 -9.631003 -59.643165 -1.622300 10.284656 68.417021 -7.838807 -2.773251 -32.453924 4.230508 -11.952239 0.000000 0.000000 0.000000 1.127698 2.230549 -9.631003 -5.789051 -10.435522 10.579396 58.589786 8.088447 -1.304407 1.230522 -6.117546 2.823089 0.000000 0.000000 0.000000 1.127698 2.230549 -9.631003 0.000000 0.000000 0.000001 10.035855 3.796828 6.296741 2.159266 1.016891 -0.125170 0.000000 0.000000 0.000000 4.193859 0.920377 -0.446521 2.878185 -0.944130 0.288592 0.000000 0.000000 0.000000 4.193859 0.920377 -0.446521 0.474520 -4.066700 -6.585509 28.460338 6.055180 -64.876893 0.000035 -69.987473 0.000052 0.000000 0.000000 0.000000 4.193859 0.920377 -0.446521 0.873286 4.683529 17.512238 -4.396761 -1.165024 45.286606 179.991604 89.542434 -179.991426 0.000000 0.000000 0.000000 
1.500967 71.981628 64.177208 0.000000 0.000000 0.000000 -1.355129 3.142088 -9.464920 -52.885779 -0.065462 9.232782 65.245806 -4.802864 -2.358157 -30.518487 1.883288 -6.285032 0.000000 0.000000 0.000000 -1.355129 3.142088 -9.464920 -6.162079 -10.866180 9.304641 65.357595 8.434893 -1.117187 7.278242 -4.959326 3.338754 0.000000 0.000000 0.000000 -1.355129 3.142088 -9.464920 0.000000 0.000000 0.000000 9.259290 2.693395 5.149847 1.925270 0.839102 -0.077355 0.000000 0.000000 0.000000 3.824444 0.768910 -0.355075 2.624003 -0.859595 0.259403 0.000000 0.000000 0.000000 3.824444 0.768910 -0.355075 0.500684 -4.286648 -7.017842 26.476182 7.455047 -65.080952 0.000013 -68.019545 0.000015 0.000000 0.000000 0.000000 3.824444 0.768910 -0.355075 0.844226 4.906388 19.002913 -2.008476 -1.382835 45.225210 0.000159 83.011940 -0.000214 0.000000 0.000000 0.000000 
1.653064 71.619377 67.700035 0.000000 0.000000 0.000000 -3.485611 3.246932 -8.864320 -48.132531 2.092246 7.383296 64.963043 0.019355 -2.294596 -27.888501 -2.099914 4.980644 0.000000 0.000000 0.000000 -3.485611 3.246932 -8.864320 -8.630093 -10.781172 7.462557 73.264905 9.502767 -0.709899 11.550715 -5.014276 2.526472 0.000000 0.000000 0.000000 -3.485611 3.246932 -8.864320 0.000000 0.000000 0.000000 8.366979 2.019941 3.649772 1.671916 0.707648 -0.227999 0.000000 0.000000 0.000000 3.433736 0.650251 -0.468240 1.776999 -0.798551 0.248473 0.000000 0.000000 0.000000 3.433736 0.650251 -0.468240 0.532383 -4.779797 -8.332995 23.034241 7.616382 -63.798202 0.000000 -65.591679 -0.000021 0.000000 0.000000 0.000000 3.433736 0.650251 -0.468240 0.718282 5.683010 20.481135 -0.472689 -0.131168 45.021749 -0.000036 73.769390 0.000034 0.000000 0.000000 0.000000 
